# xmcd
#
# Track frame offsets: 
#        150
#        2890
#        23235
#        40335
#        61202
#        78865
#        97915
#        115510
#        135767
#        154162
#        175707
#
# Disc length: 2568 seconds
#
# Revision: 3
# Processed by: cddbd v1.5.2PL0 Copyright (c) Steve Scherf et al.
# Submitted via: ExactAudioCopy v0.99pb4
#
DISCID=720a060b
DTITLE=Eco - Voice of Eco
DYEAR=1997
DGENRE=Pop
TTITLE0=Intro
TTITLE1=고해성사
TTITLE2=최후통첩
TTITLE3=행복한 나를
TTITLE4=사랑의 포로
TTITLE5=Orange
TTITLE6=너의향기
TTITLE7=언제까지나
TTITLE8=사랑하면 안돼
TTITLE9=고백
TTITLE10=어제
EXTD=
EXTT0=
EXTT1=
EXTT2=
EXTT3=
EXTT4=
EXTT5=
EXTT6=
EXTT7=
EXTT8=
EXTT9=
EXTT10=
PLAYORDER=
